<?xml version="1.0" encoding="utf-8"?>
<!-- Svg Vector Icons : http://www.onlinewebfonts.com/icon -->
<!DOCTYPE svg PUBLIC "-//W3C//DTD SVG 1.1//EN" "http://www.w3.org/Graphics/SVG/1.1/DTD/svg11.dtd">
<svg version="1.1" xmlns="http://www.w3.org/2000/svg" xmlns:xlink="http://www.w3.org/1999/xlink" x="0px" y="0px" viewBox="0 0 1000 1000" enable-background="new 0 0 1000 1000" xml:space="preserve">
<metadata> Svg Vector Icons : http://www.onlinewebfonts.com/icon </metadata>
<g><path d="M405.1,249l250.9,251l-251,251l-40.8-40.8L574.5,500L364.3,289.8L405.1,249z M990,500c0,270.2-219.8,490-490,490C229.8,990,10,770.2,10,500C10,229.8,229.8,10,500,10C770.2,10,990,229.8,990,500z M932.4,500c0-238.4-193.9-432.4-432.4-432.4C261.6,67.6,67.6,261.6,67.6,500c0,238.4,193.9,432.4,432.4,432.4C738.4,932.4,932.4,738.4,932.4,500z"/></g>
</svg>