<svg id="Layer_1" data-name="Layer 1" xmlns="http://www.w3.org/2000/svg" viewBox="0 0 45.99 45.9"><defs><style>.cls-1{fill:#fff;fill-rule:evenodd;}</style></defs><title>icon1</title><g id="brush"><path class="cls-1" d="M39.46,0,8.72,30.68s-4.5.78-6.54,4.35C-.12,39,0,45.9,0,45.9s6.9.1,10.89-2.18c3.62-2.06,4.36-6.52,4.36-6.52L46,6.52ZM9.8,40.46c-2.45,1.9-6.53,2.18-6.53,2.18s.29-4.1,2.18-6.52a10.68,10.68,0,0,1,5.44-3.27L13.07,35A10.75,10.75,0,0,1,9.8,40.46Zm3.27-9.78L39.46,4.35l2.18,2.17L15.25,32.85Z"/></g></svg>