<svg id="Layer_1" data-name="Layer 1" xmlns="http://www.w3.org/2000/svg" viewBox="0 0 23.44 29.82"><defs><style>.cls-1{fill:#fff;fill-rule:evenodd;}</style></defs><title>p</title><g id="pinterest"><path class="cls-1" d="M23.3,8.29C22.48,2.4,16.55-.6,10.22.1,5.21.66.22,4.66,0,10.39c-.13,3.5.88,6.12,4.24,6.86,1.45-2.55-.47-3.11-.77-5C2.24,4.74,12.28-.41,17.53,4.86c3.64,3.66,1.24,14.89-4.62,13.72-5.61-1.11,2.75-10-1.73-11.81C7.54,5.34,5.6,11.13,7.33,14c-1,5-3.19,9.61-2.31,15.81,2.86-2.05,3.83-6,4.62-10.09,1.44.86,2.21,1.76,4,1.9C20.45,22.15,24.23,14.94,23.3,8.29Z"/></g></svg>