<svg id="Layer_1" data-name="Layer 1" xmlns="http://www.w3.org/2000/svg" viewBox="0 0 34.95 29.27"><defs><style>.cls-1{fill:#fff;fill-rule:evenodd;}</style></defs><title>t</title><g id="twitter"><path class="cls-1" d="M35,3.46a14,14,0,0,1-4.12,1.17A7.39,7.39,0,0,0,34,.54a14,14,0,0,1-4.55,1.79A7.08,7.08,0,0,0,24.2,0,7.28,7.28,0,0,0,17,7.39a7.72,7.72,0,0,0,.18,1.68A20.14,20.14,0,0,1,2.43,1.35a7.6,7.6,0,0,0-1,3.72,7.46,7.46,0,0,0,3.18,6.15,7,7,0,0,1-3.24-.93v.09a7.35,7.35,0,0,0,5.75,7.25,7,7,0,0,1-1.89.26,7.53,7.53,0,0,1-1.35-.13,7.21,7.21,0,0,0,6.69,5.13,14.1,14.1,0,0,1-8.9,3.16A13.78,13.78,0,0,1,0,26a19.82,19.82,0,0,0,11,3.32c13.19,0,20.4-11.26,20.4-21l0-1A14.52,14.52,0,0,0,35,3.46Z"/></g></svg>